<?xml version="1.0" encoding="UTF-8" standalone="no"?> <svg width="512" height="512" viewBox="0 0 512 512" fill="none" xmlns="http://www.w3.org/2000/svg">
<path d="M33.344 492.438C34.0746 493.534 35.0643 494.432 36.2255 495.053C37.3866 495.675 38.6831 496 40 496C41.3169 496 42.6134 495.675 43.7745 495.053C44.9357 494.432 45.9254 493.534 46.656 492.438L62.656 468.438C63.5323 467.124 64 465.58 64 464V426.667C64 426.667 135.337 331.199 135.458 330.888C135.476 330.841 157.872 109.675 157.872 109.675L207.988 178.585L207.427 302C207.427 302 184.9 332.335 184.88 332.365C184.709 332.7 184 364 184 364C184.008 371.423 186.961 378.54 192.21 383.79C197.46 389.039 204.577 391.992 212 392H225.754L229.754 408H204C192.33 408 181.139 412.636 172.887 420.887C164.636 429.139 160 440.33 160 452C160 463.67 164.636 474.861 172.887 483.113C181.139 491.364 192.33 496 204 496H452C463.67 496 474.861 491.364 483.113 483.113C491.364 474.861 496 463.67 496 452C496 440.33 491.364 429.139 483.113 420.887C474.861 412.636 463.67 408 452 408H362.246L366.246 392H444.11C447.742 392 451.335 391.239 454.655 389.765C457.975 388.292 460.95 386.139 463.387 383.446C465.824 380.752 467.67 377.578 468.806 374.128C469.941 370.677 470.341 367.027 469.98 363.413L465.58 319.413C464.957 312.99 461.96 307.031 457.175 302.701C452.391 298.371 446.163 295.982 439.71 296H344V248C344 245.878 343.157 243.843 341.657 242.343C340.157 240.843 338.122 240 336 240H323.314L280 196.686V160C280.001 157.999 279.252 156.07 277.9 154.594C277.9 154.594 186.815 56.515 186.658 56.459C186.616 56.444 137.496 40.124 136.977 40.059L127.158 20.421C126.541 19.1867 125.616 18.1329 124.471 17.362C123.327 16.5912 122.002 16.1294 120.627 16.0216C119.251 15.9138 117.871 16.1637 116.62 16.7469C115.37 17.3301 114.292 18.2268 113.49 19.35L73.49 75.35C72.5209 76.7068 71.9999 78.3326 72 80V324.321L64 331.178V328C64 325.878 63.1571 323.843 61.6569 322.343C60.1566 320.843 58.1217 320 56 320H24C21.8783 320 19.8434 320.843 18.3431 322.343C16.8429 323.843 16 325.878 16 328V464C16 465.58 16.4677 467.124 17.344 468.438L33.344 492.438ZM48 461.578L40 473.578L32 461.578V432H48V461.578ZM52 416H32V379.68L82.959 336H112L52 416ZM296 256V328H207.968L261.789 256H296ZM200 364V344H304C306.122 344 308.157 343.157 309.657 341.657C311.157 340.157 312 338.122 312 336V256H328V376H212C208.818 375.997 205.768 374.731 203.519 372.481C201.269 370.232 200.003 367.182 200 364V364ZM283.563 459C284.806 466.724 288.093 473.975 293.084 480H237.916C242.907 473.975 246.194 466.724 247.437 459H283.563ZM299.886 459H354.114C352.564 465.013 349.06 470.341 344.151 474.144C339.243 477.948 333.21 480.012 327 480.012C320.79 480.012 314.757 477.948 309.849 474.144C304.94 470.341 301.436 465.013 299.886 459V459ZM370.437 459H408.563C409.806 466.724 413.093 473.975 418.084 480H360.916C365.907 473.975 369.194 466.724 370.437 459V459ZM370.071 443C368.61 436.016 365.467 429.495 360.916 424H418.084C413.533 429.495 410.39 436.016 408.929 443H370.071ZM353.508 443H300.492C302.371 437.46 305.938 432.648 310.693 429.24C315.447 425.832 321.15 423.999 327 423.999C332.85 423.999 338.553 425.832 343.307 429.24C348.062 432.648 351.629 437.46 353.508 443V443ZM283.929 443H247.071C245.61 436.016 242.467 429.495 237.916 424H293.084C288.533 429.495 285.39 436.016 283.929 443ZM176 452C176.004 445.368 178.363 438.952 182.655 433.897C186.947 428.841 192.895 425.473 199.439 424.392C205.982 423.312 212.697 424.589 218.387 427.997C224.076 431.404 228.372 436.721 230.508 443H204C201.878 443 199.843 443.843 198.343 445.343C196.843 446.843 196 448.878 196 451C196 453.122 196.843 455.157 198.343 456.657C199.843 458.157 201.878 459 204 459H231.114C229.413 465.601 225.361 471.355 219.72 475.183C214.079 479.01 207.235 480.648 200.472 479.789C193.709 478.93 187.492 475.633 182.987 470.517C178.481 465.401 175.997 458.817 176 452ZM480 452C480.003 458.817 477.519 465.401 473.013 470.517C468.508 475.633 462.291 478.93 455.528 479.789C448.765 480.648 441.921 479.01 436.28 475.183C430.639 471.355 426.587 465.601 424.886 459H452C454.122 459 456.157 458.157 457.657 456.657C459.157 455.157 460 453.122 460 451C460 448.878 459.157 446.843 457.657 445.343C456.157 443.843 454.122 443 452 443H425.492C427.628 436.721 431.924 431.404 437.613 427.997C443.303 424.589 450.018 423.312 456.561 424.392C463.105 425.473 469.053 428.841 473.345 433.897C477.637 438.952 479.996 445.368 480 452V452ZM345.754 408H246.246L242.246 392H349.754L345.754 408ZM451.16 336L452.76 352H384V336H451.16ZM439.71 312C442.017 311.993 444.255 312.786 446.043 314.245C447.83 315.704 449.055 317.738 449.51 320H376C373.878 320 371.843 320.843 370.343 322.343C368.843 323.843 368 325.878 368 328V360C368 362.122 368.843 364.157 370.343 365.657C371.843 367.157 373.878 368 376 368H453.911C453.448 370.258 452.22 372.287 450.435 373.744C448.65 375.202 446.416 375.999 444.111 376H344V312H439.71ZM300.686 240H280V219.314L300.686 240ZM264 180.686L253.657 170.343C252.157 168.843 250.122 168 248 168C245.878 168 243.843 168.843 242.343 170.343C240.843 171.843 240 173.878 240 176C240 178.122 240.843 180.157 242.343 181.657L264 203.314V240H257.781C256.537 240 255.31 240.29 254.198 240.847C253.086 241.405 252.119 242.214 251.374 243.21L223.525 280.465L224 176.036C224.008 174.333 223.472 172.671 222.47 171.294L163.106 89.67L183 74.75L264 163.112V180.686ZM166.985 66.761L154.869 75.849L146.993 60.1L166.985 66.761ZM88 82.563L118.787 39.463L143.81 89.507L120.76 320H88V82.563ZM48 336V344.892L32 358.606V336H48Z" fill="#FFFFFF"/>
<path d="M96 456C93.8783 456 91.8434 456.843 90.3431 458.343C88.8429 459.843 88 461.878 88 464V472C88 474.122 88.8429 476.157 90.3431 477.657C91.8434 479.157 93.8783 480 96 480C98.1217 480 100.157 479.157 101.657 477.657C103.157 476.157 104 474.122 104 472V464C104 461.878 103.157 459.843 101.657 458.343C100.157 456.843 98.1217 456 96 456Z" fill="#FFFFFF"/>
<path d="M104 416C104 413.878 103.157 411.843 101.657 410.343C100.157 408.843 98.1217 408 96 408C93.8783 408 91.8434 408.843 90.3431 410.343C88.8429 411.843 88 413.878 88 416V432C88 434.122 88.8429 436.157 90.3431 437.657C91.8434 439.157 93.8783 440 96 440C98.1217 440 100.157 439.157 101.657 437.657C103.157 436.157 104 434.122 104 432V416Z" fill="#FFFFFF"/>
</svg>
