<?xml version="1.0" standalone="no"?>
<!DOCTYPE svg PUBLIC "-//W3C//DTD SVG 20010904//EN"
 "http://www.w3.org/TR/2001/REC-SVG-20010904/DTD/svg10.dtd">
<svg version="1.0" xmlns="http://www.w3.org/2000/svg"
 width="6079.000000pt" height="1289.000000pt" viewBox="0 0 6079.000000 1289.000000"
 preserveAspectRatio="xMidYMid meet">

<g transform="translate(0.000000,1289.000000) scale(0.100000,-0.100000)"
fill="#9D0610" stroke="none">
<path d="M0 6445 l0 -6445 30395 0 30395 0 0 6445 0 6445 -30395 0 -30395 0 0
-6445z m34915 4584 c461 -24 1040 -100 1532 -199 80 -17 148 -30 150 -30 1 0
3 -315 3 -700 0 -454 -3 -700 -10 -700 -5 0 -90 32 -187 71 -679 271 -1074
390 -1508 454 -296 43 -700 46 -912 6 -321 -60 -589 -204 -743 -397 -196 -247
-268 -632 -173 -923 111 -340 441 -651 1093 -1026 74 -43 317 -177 540 -298
508 -276 728 -400 952 -540 1003 -626 1498 -1266 1603 -2070 19 -151 20 -463
0 -628 -20 -169 -58 -348 -106 -494 -48 -145 -166 -389 -244 -505 -479 -714
-1347 -1123 -2545 -1201 -229 -15 -737 -7 -980 16 -543 49 -1079 145 -1682
302 l-178 46 0 783 c0 431 3 784 6 784 3 0 71 -40 152 -89 513 -310 925 -501
1339 -620 530 -154 1076 -192 1513 -105 577 115 936 437 1041 934 28 136 31
353 5 483 -82 421 -382 791 -949 1170 -233 155 -375 238 -1172 679 -731 405
-1124 676 -1445 998 -385 385 -596 800 -651 1280 -17 154 -7 481 21 640 155
885 794 1495 1846 1758 487 122 989 158 1689 121z m-29690 -152 c769 -88 1283
-290 1667 -656 326 -310 512 -711 589 -1271 18 -127 19 -633 1 -755 -82 -579
-300 -973 -702 -1267 -230 -169 -569 -317 -942 -413 -60 -16 -108 -31 -108
-35 0 -4 42 -18 93 -30 241 -59 492 -165 667 -281 127 -84 315 -272 399 -399
135 -203 245 -482 335 -850 44 -183 636 -2906 636 -2929 0 -8 -193 -10 -772
-9 l-772 3 -216 1005 c-302 1404 -356 1629 -455 1895 -189 505 -447 750 -898
852 -225 50 -291 55 -809 60 l-488 5 0 -1911 0 -1911 -765 0 -765 0 0 4460 0
4461 1578 -4 c1409 -3 1593 -5 1727 -20z m9345 -4424 c832 -2447 1516 -4454
1518 -4460 3 -10 -159 -13 -789 -13 l-794 0 -320 998 c-175 548 -350 1093
-387 1210 l-69 212 -1596 -2 -1597 -3 -387 -1205 -386 -1205 -793 -3 -792 -2
5 22 c4 13 689 2020 1524 4461 l1517 4437 916 0 916 0 1514 -4447z m3980 2602
l0 -1845 1595 0 1595 0 0 1845 0 1845 760 0 760 0 0 -4460 0 -4460 -760 0
-760 0 0 2035 0 2035 -1595 0 -1595 0 0 -2035 0 -2035 -765 0 -765 0 0 4460 0
4460 765 0 765 0 0 -1845z m11828 1268 l-3 -578 -1847 -3 -1848 -2 0 -1280 0
-1280 1750 0 1750 0 0 -580 0 -580 -1750 0 -1750 0 0 -1440 0 -1440 1900 0
1900 0 0 -580 0 -580 -2657 2 -2658 3 -3 4458 -2 4457 2610 0 2610 0 -2 -577z
m13222 -3 l0 -580 -1115 0 -1115 0 0 -3880 0 -3880 -760 0 -760 0 0 3880 0
3880 -1117 2 -1118 3 -3 578 -2 577 2995 0 2995 0 0 -580z m4630 576 c0 -2
682 -2005 1515 -4451 833 -2447 1515 -4452 1515 -4457 0 -4 -356 -7 -792 -6
l-792 3 -386 1205 -387 1205 -1597 0 -1598 0 -387 -1205 -386 -1205 -793 -3
c-685 -2 -793 0 -790 12 2 8 687 2015 1523 4460 l1520 4446 918 0 c504 0 917
-2 917 -4z m7552 -3273 c944 -1803 1721 -3279 1727 -3281 8 -3 11 910 11 3277
l0 3281 695 0 695 0 0 -4460 0 -4460 -852 2 -851 3 -1798 3434 c-989 1889
-1803 3439 -1808 3444 -8 8 -11 -1011 -11 -3436 l0 -3447 -695 0 -695 0 0
4460 0 4460 933 0 933 0 1716 -3277z"/>
<path d="M3450 8355 l0 -1467 513 5 c537 5 598 9 847 58 138 28 344 96 450
149 403 203 621 537 681 1044 17 149 7 503 -20 643 -43 227 -128 431 -243 584
-164 217 -391 351 -714 421 -95 20 -129 21 -806 25 l-708 4 0 -1466z"/>
<path d="M11515 7512 l-611 -1947 1225 -3 c673 -1 1226 0 1229 2 7 7 -1213
3889 -1224 3893 -5 2 -284 -873 -619 -1945z"/>
<path d="M47297 9453 c-5 -9 -1203 -3828 -1213 -3867 l-6 -26 1226 0 c674 0
1226 3 1226 8 1 16 -1216 3892 -1222 3892 -4 0 -9 -3 -11 -7z"/>
</g>
</svg>
