<?xml version="1.0" encoding="UTF-8"?>
<svg version="1.1" xmlns="http://www.w3.org/2000/svg" width="1459" height="508">
<path d="M0 0 C481.47 0 962.94 0 1459 0 C1459 167.64 1459 335.28 1459 508 C977.53 508 496.06 508 0 508 C0 340.36 0 172.72 0 0 Z M376 47 C375.95476718 74.98241444 375.91796086 102.96479905 375.89637566 130.94724083 C375.88608469 143.94140308 375.87206623 156.93554092 375.84912109 169.9296875 C375.82912027 181.26187712 375.81626774 192.59404904 375.81182301 203.92625582 C375.80922693 209.92064075 375.80317087 215.91497509 375.78853989 221.90934372 C375.77485001 227.56456394 375.77080015 233.21971328 375.77378464 238.8749485 C375.77323953 240.93791528 375.76933065 243.00088472 375.76158905 245.06383705 C375.6473975 277.09517375 379.36229595 309.10337389 402.625 333.25 C424.01906861 354.42930979 454.38301022 356.23176379 482.80175781 356.18066406 C510.38407115 355.97718223 540.86384269 353.51079269 561.79296875 333.265625 C562.39044922 332.63914062 562.39044922 332.63914062 563 332 C566.25540078 333.40639025 568.14593487 335.05982643 570.5 337.6875 C585.81358415 353.22628392 608.4482917 356.06967406 629.25 356.25 C654.00214343 356.06604518 681.61892845 353.3612206 700.125 335.0625 C700.74375 334.381875 701.3625 333.70125 702 333 C705.77024649 334.25674883 707.22180196 336.1586611 710 339 C723.00794493 352.29383383 743.42709154 355.61178301 761.2890625 356.03515625 C784.54390344 356.11653383 804.83222173 348.62708022 822 333 C824.98237763 334.32122536 826.79741236 335.68405123 828.9375 338.125 C841.55616861 351.01272338 859.46425886 355.79393617 877.06152344 356.02734375 C895.61091087 355.78060605 912.46293119 351.14796131 926.01171875 337.91796875 C928 336 928 336 931 334 C931.53625 334.6290625 932.0725 335.258125 932.625 335.90625 C945.85675809 350.35672265 962.89548043 354.86212642 982 356 C1018.49859025 357.19585284 1055.76080744 353.8375768 1090.74609375 342.8203125 C1098.23075899 340.9334221 1103.93240258 342.32678786 1111.0625 344.625 C1148.44625771 355.91143148 1193.34029205 363.40851211 1230 346 C1250.14954349 335.13558398 1263.28054344 317.58804128 1270 296 C1270.48339844 294.52660156 1270.48339844 294.52660156 1270.9765625 293.0234375 C1276.80497702 272.37886645 1273.11002943 251.2782292 1263.12890625 232.71484375 C1260.18429692 227.46204495 1256.78471981 222.68039193 1253 218 C1252.36723145 217.21713623 1252.36723145 217.21713623 1251.72167969 216.41845703 C1242.75470229 205.39883701 1233.12522573 195.86608027 1222 187 C1220.86452019 186.064154 1219.73046547 185.12657689 1218.59765625 184.1875 C1191.21775993 161.63585452 1159.32190224 144.63673326 1127.75 128.75 C1126.61183838 128.17620605 1125.47367676 127.60241211 1124.30102539 127.01123047 C1123.24778076 126.48674316 1122.19453613 125.96225586 1121.109375 125.421875 C1120.17061523 124.95362305 1119.23185547 124.48537109 1118.26464844 124.00292969 C1116.1080163 122.86502304 1116.1080163 122.86502304 1114 123 C1113.52167725 123.90129639 1113.04335449 124.80259277 1112.55053711 125.73120117 C1110.74119581 129.14026339 1108.93133708 132.54905071 1107.12133789 135.95776367 C1106.34450846 137.42090724 1105.56781131 138.88412104 1104.79125977 140.34741211 C1099.89079238 149.58132447 1094.96553748 158.80089671 1090 168 C1094.62 170.31 1099.24 172.62 1104 175 C1102.42992187 175.03738281 1100.85984375 175.07476562 1099.2421875 175.11328125 C1074.78774454 175.82221859 1053.06708396 179.70948347 1035.4140625 198.203125 C1020.32943 215.67981897 1012.25780414 235.56347158 1013.78125 258.70556641 C1015.0887152 272.41935873 1020.5739543 285.59179153 1028.63110352 296.72631836 C1029.07623795 297.34333115 1029.52137238 297.96034393 1029.97999573 298.59605408 C1030.31659714 299.05935623 1030.65319855 299.52265839 1031 300 C1023.919589 299.93265175 1016.83971513 299.84271086 1009.75976562 299.73754883 C1007.35455728 299.70443036 1004.94927366 299.67635833 1002.54394531 299.65356445 C999.07324341 299.61977759 995.60322327 299.56744905 992.1328125 299.51171875 C991.06886261 299.50532883 990.00491272 299.4989389 988.90872192 299.49235535 C980.44402083 299.32813782 971.44497294 298.1915233 964.59375 292.74609375 C952.52909555 279.52820027 953.1971136 257.2520502 951.875 240.5 C951.62239415 237.39145077 951.36731073 234.28312159 951.11038208 231.17492676 C950.95263766 229.25744822 950.7977404 227.33973251 950.64620972 225.42175293 C950.25573367 220.57991701 949.74785576 215.80003805 949 211 C938.40762536 211.54753986 927.90664891 212.46079531 917.37646484 213.72949219 C915.07849303 214.0055877 912.77958491 214.27268081 910.48046875 214.5390625 C909.01035486 214.71302015 907.5403002 214.88747925 906.0703125 215.0625 C905.38711945 215.14169678 904.70392639 215.22089355 904.00003052 215.30249023 C900.38338373 215.72831094 900.38338373 215.72831094 897 217 C897.06058594 217.61480225 897.12117187 218.22960449 897.18359375 218.86303711 C898.43353629 231.97902069 899.22432046 245.05202654 899.29956055 258.22512817 C899.3080808 259.64075693 899.32162309 261.05636579 899.34057617 262.47189331 C899.46805298 273.0968012 899.52402782 285.63996909 892 294 C886.41551 297.88983682 882.29304373 298.62830266 875.5625 298.5 C874.35110352 298.52320313 874.35110352 298.52320313 873.11523438 298.546875 C866.52031791 298.50436144 860.93153899 296.9632656 856.1953125 292.17578125 C855.84210938 291.56089844 855.48890625 290.94601562 855.125 290.3125 C854.75632812 289.71050781 854.38765625 289.10851562 854.0078125 288.48828125 C850.8501716 280.69209034 850.49439764 272.3767188 849.96484375 264.08203125 C849.88126114 262.8660173 849.79767853 261.65000336 849.71156311 260.3971405 C849.44708228 256.5359993 849.19174202 252.67432776 848.9375 248.8125 C848.67831136 244.94007251 848.4171393 241.06779874 848.15272522 237.19572449 C847.98908153 234.79304741 847.82865558 232.39014844 847.67185974 229.98701477 C847.59830765 228.89535507 847.52475555 227.80369537 847.44897461 226.67895508 C847.35476479 225.24740837 847.35476479 225.24740837 847.25865173 223.78694153 C846.98370774 220.82445287 846.52244288 217.92812267 846 215 C828.59412301 216.47474543 811.31056902 218.6887842 794 221 C794.06058594 221.58040039 794.12117188 222.16080078 794.18359375 222.75878906 C795.42922903 235.05704201 796.24159558 247.32424562 796.375 259.6875 C796.40078125 260.81897461 796.4265625 261.95044922 796.453125 263.11621094 C796.47656021 273.11425888 794.77962954 284.22336611 788 292 C778.46736851 299.4603203 766.75825375 299.8341194 755.12890625 298.7265625 C747.38439343 297.58797948 741.72845441 295.23106444 736.625 289.1875 C732.79905076 281.68275342 732.50334938 273.73645779 731.96484375 265.46875 C731.88126114 264.2782605 731.79767853 263.087771 731.71156311 261.86120605 C731.44682663 258.0745668 731.19170944 254.28735924 730.9375 250.5 C730.67799922 246.71278246 730.41645773 242.92571913 730.15272522 239.13879395 C729.98959082 236.78832242 729.82916683 234.43766071 729.67185974 232.08679199 C729.27985929 226.35902853 728.78435732 220.68777765 728 215 C710.59412301 216.47474543 693.31056902 218.6887842 676 221 C676.06058594 221.69222656 676.12117188 222.38445312 676.18359375 223.09765625 C677.26634409 235.74084864 678.20745864 248.36865609 678.3125 261.0625 C678.32990234 262.01705078 678.34730469 262.97160156 678.36523438 263.95507812 C678.35907791 272.67879529 676.74122726 281.17259461 671 288 C660.33728152 298.50436128 644.82436091 299.17820555 630.6875 299.1875 C629.71876953 299.19974609 628.75003906 299.21199219 627.75195312 299.22460938 C616.8679739 299.24639186 606.60793051 298.45265277 598.50390625 290.5390625 C591.702158 282.26393852 591.48170962 269.99782136 590.8671875 259.7890625 C590.78501984 258.5772934 590.70285217 257.36552429 590.61819458 256.11703491 C590.36024525 252.28695208 590.11695046 248.45612367 589.875 244.625 C589.62312386 240.77269166 589.36816371 236.92061264 589.11038208 233.06869507 C588.95161134 230.68275078 588.79671183 228.29654483 588.64620972 225.9100647 C588.57588531 224.82808807 588.50556091 223.74611145 588.43310547 222.63134766 C588.37331512 221.6860318 588.31352478 220.74071594 588.25192261 219.76675415 C587.98271561 216.81017317 587.52180328 213.9216876 587 211 C580.536572 210.88585558 574.34297112 211.29009416 567.93359375 212.09375 C567.01409439 212.20473022 566.09459503 212.31571045 565.14723206 212.43005371 C562.24335279 212.78169637 559.34044304 213.1407189 556.4375 213.5 C554.45513781 213.74137613 552.47271638 213.9822662 550.49023438 214.22265625 C545.65945345 214.80948994 540.82952706 215.40293872 536 216 C535.93004294 227.50877397 535.93004294 227.50877397 536.5 239 C536.96608866 245.95750754 537.1424577 252.9024525 537.1875 259.875 C537.20039062 260.8134375 537.21328125 261.751875 537.2265625 262.71875 C537.24061069 272.69296283 536.72821944 282.12376455 529.48828125 289.55078125 C517.42850862 300.09327229 498.09047998 299.2019834 483.06103516 299.24023438 C480.76818305 299.24992316 478.47623621 299.28103332 476.18359375 299.3125 C463.51771357 299.40421682 449.79439901 299.10376831 440 290 C429.14957701 278.50638183 430.41458877 258.68474513 430.45410156 244.08007812 C430.44534874 241.92010256 430.43485706 239.76013346 430.42277527 237.60017395 C430.39510414 231.78513878 430.39150639 225.97031717 430.39249516 220.15522575 C430.38934972 214.06001979 430.36369776 207.96490773 430.34051514 201.86975098 C430.30007602 190.34947085 430.2796429 178.82924716 430.26654124 167.30890703 C430.25063014 154.18418871 430.21219728 141.05956587 430.17194796 127.93490314 C430.08971446 100.95661528 430.03849126 73.97838818 430 47 C412.18 47 394.36 47 376 47 Z M496.3105011 101.32873535 C495.38783699 102.26139221 495.38783699 102.26139221 494.4465332 103.21289062 C493.74603348 103.91361694 493.04553375 104.61434326 492.32380676 105.33630371 C491.57370834 106.10188599 490.82360992 106.86746826 490.05078125 107.65625 C489.27816452 108.43311157 488.50554779 109.20997314 487.70951843 110.01037598 C485.23673885 112.49998527 482.7745763 114.99980958 480.3125 117.5 C478.64066155 119.18687966 476.96814401 120.87308657 475.29492188 122.55859375 C471.18869475 126.69794714 467.09114359 130.84574107 463 135 C464.3761536 138.09179136 465.95158445 140.19638753 468.34814453 142.57519531 C469.02869904 143.25559875 469.70925354 143.9360022 470.41043091 144.63702393 C471.14381683 145.36008728 471.87720276 146.08315063 472.6328125 146.828125 C473.38464813 147.57713074 474.13648376 148.32613647 474.91110229 149.09783936 C477.31107901 151.4866302 479.71792009 153.86836897 482.125 156.25 C483.75436352 157.86933169 485.38327534 159.48911802 487.01171875 161.109375 C491.00258806 165.07820505 494.99911415 169.04126899 499 173 C501.95265112 171.67005617 504.02350216 170.22220684 506.29980469 167.92724609 C506.92014587 167.30675385 507.54048706 166.6862616 508.17962646 166.04696655 C508.83706848 165.37920197 509.4945105 164.71143738 510.171875 164.0234375 C510.8542926 163.33819 511.53671021 162.6529425 512.23980713 161.94692993 C514.41461598 159.76094155 516.58236072 157.56809571 518.75 155.375 C520.2247999 153.89016745 521.70005506 152.40578694 523.17578125 150.921875 C526.78915448 147.2864709 530.39620853 143.64490176 534 140 C536.95265112 141.32994383 539.02350216 142.77779316 541.29980469 145.07275391 C541.92014587 145.69324615 542.54048706 146.3137384 543.17962646 146.95303345 C544.16578949 147.95468033 544.16578949 147.95468033 545.171875 148.9765625 C545.8542926 149.66181 546.53671021 150.3470575 547.23980713 151.05307007 C549.41461598 153.23905845 551.58236072 155.43190429 553.75 157.625 C555.2247999 159.10983255 556.70005506 160.59421306 558.17578125 162.078125 C561.78915448 165.7135291 565.39620853 169.35509824 569 173 C572.04581486 171.63886987 574.13839026 170.10669904 576.48339844 167.74365234 C577.14378113 167.08311859 577.80416382 166.42258484 578.48455811 165.74203491 C579.18574768 165.03052277 579.88693726 164.31901062 580.609375 163.5859375 C581.69958954 162.49147812 581.69958954 162.49147812 582.81182861 161.37490845 C585.12929198 159.0462612 587.4396995 156.71075174 589.75 154.375 C591.32115444 152.79381347 592.89276371 151.21307875 594.46484375 149.6328125 C598.31518653 145.7604331 602.15976117 141.88239829 606 138 C604.6238464 134.90820864 603.04841555 132.80361247 600.65185547 130.42480469 C599.97130096 129.74440125 599.29074646 129.0639978 598.58956909 128.36297607 C597.4894902 127.27838104 597.4894902 127.27838104 596.3671875 126.171875 C595.61535187 125.42286926 594.86351624 124.67386353 594.08889771 123.90216064 C591.68892099 121.5133698 589.28207991 119.13163103 586.875 116.75 C585.24563648 115.13066831 583.61672466 113.51088198 581.98828125 111.890625 C577.99741194 107.92179495 574.00088585 103.95873101 570 100 C567.04734888 101.32994383 564.97649784 102.77779316 562.70019531 105.07275391 C562.07985413 105.69324615 561.45951294 106.3137384 560.82037354 106.95303345 C559.83421051 107.95468033 559.83421051 107.95468033 558.828125 108.9765625 C558.1457074 109.66181 557.46328979 110.3470575 556.76019287 111.05307007 C554.58538402 113.23905845 552.41763928 115.43190429 550.25 117.625 C548.7752001 119.10983255 547.29994494 120.59421306 545.82421875 122.078125 C542.21084552 125.7135291 538.60379147 129.35509824 535 133 C530.25686191 129.05397478 525.81910258 124.9263474 521.515625 120.5078125 C520.32189676 119.29659683 519.12787816 118.08566727 517.93359375 116.875 C516.07825581 114.9885173 514.22538885 113.09977918 512.37744141 111.20605469 C510.57598574 109.36246248 508.7653722 107.52828894 506.953125 105.6953125 C506.3999762 105.12354279 505.84682739 104.55177307 505.2769165 103.962677 C503.90722936 102.5838515 502.45894588 101.28400917 501 100 C498.03478113 99.69090632 498.03478113 99.69090632 496.3105011 101.32873535 Z M184.39279175 169.36669922 C183.44014938 170.32600342 183.44014938 170.32600342 182.46826172 171.3046875 C181.74766571 172.02543457 181.0270697 172.74618164 180.28463745 173.48876953 C179.11893723 174.66995361 179.11893723 174.66995361 177.9296875 175.875 C177.13345978 176.67405762 176.33723206 177.47311523 175.51687622 178.29638672 C172.96487248 180.85962119 170.4198947 183.42970906 167.875 186 C166.15019658 187.73482947 164.42494201 189.46921053 162.69921875 191.203125 C158.46088952 195.46355296 154.22831458 199.72963398 150 204 C154.17777765 208.98592875 158.53127277 213.66704284 163.1484375 218.24609375 C163.80582916 218.90207047 164.46322083 219.55804718 165.14053345 220.23390198 C167.21632862 222.30415268 169.29559427 224.37087651 171.375 226.4375 C172.7932008 227.85067862 174.21117176 229.26408794 175.62890625 230.67773438 C179.08328777 234.12116065 182.5407837 237.56143099 186 241 C189.09179136 239.6238464 191.19638753 238.04841555 193.57519531 235.65185547 C194.25559875 234.97130096 194.9360022 234.29074646 195.63702393 233.58956909 C196.36008728 232.85618317 197.08315063 232.12279724 197.828125 231.3671875 C198.57713074 230.61535187 199.32613647 229.86351624 200.09783936 229.08889771 C202.4866302 226.68892099 204.86836897 224.28207991 207.25 221.875 C208.86933169 220.24563648 210.48911802 218.61672466 212.109375 216.98828125 C216.07820505 212.99741194 220.04126899 209.00088585 224 205 C219.83207173 200.03437259 215.5007433 195.3410067 210.921875 190.75390625 C210.26922668 190.09792953 209.61657837 189.44195282 208.94415283 188.76609802 C207.57735601 187.39427636 206.20923619 186.02377167 204.83984375 184.65454102 C202.73669241 182.54917841 200.64169627 180.43591291 198.546875 178.32226562 C197.21403047 176.98649126 195.88071417 175.65118742 194.546875 174.31640625 C193.91980652 173.68215225 193.29273804 173.04789825 192.64666748 172.39442444 C188.95053779 167.92954397 188.95053779 167.92954397 184.39279175 169.36669922 Z M303.04785156 210.56054688 C302.06713684 210.90089966 301.08642212 211.24125244 300.07598877 211.59191895 C298.4992337 212.14970032 298.4992337 212.14970032 296.890625 212.71875 C295.80867859 213.09608276 294.72673218 213.47341553 293.61199951 213.86218262 C290.15594074 215.06899295 286.70296943 216.28438199 283.25 217.5 C280.90775029 218.31957708 278.56530465 219.13859446 276.22265625 219.95703125 C270.47948133 221.96486438 264.73881792 223.97974962 259 226 C259.60092838 229.15630624 260.25527194 231.88853502 261.63671875 234.79296875 C261.96381836 235.49615234 262.29091797 236.19933594 262.62792969 236.92382812 C262.97758789 237.67083984 263.32724609 238.41785156 263.6875 239.1875 C279.46830858 273.92512896 286.71147884 316.09698799 274 353 C266.76086776 370.66423674 254.96774541 383.38262824 237.35546875 390.875 C224.25340928 395.26777431 210.58979526 398.12051327 196.7578125 398.203125 C195.60694656 398.21167511 195.60694656 398.21167511 194.43283081 398.22039795 C192.81428375 398.22978725 191.19571809 398.23635756 189.57714844 398.24023438 C187.16565064 398.24983811 184.75504489 398.28087646 182.34375 398.3125 C160.20658118 398.46247411 135.5382614 394.84695656 118.76953125 378.99609375 C102.69020507 360.85804589 100.67246403 337.11451758 102 314 C103.7840244 291.7207964 109.78175672 270.68009909 117.08300781 249.65429688 C118.4213979 245.78023484 119.71108225 241.89077035 121 238 C112.0680408 233.82810481 102.99739161 230.00465691 93.89916992 226.21411133 C91.40966527 225.17589184 88.92259524 224.13197824 86.43554688 223.08789062 C84.85170694 222.42673722 83.26772774 221.7659173 81.68359375 221.10546875 C80.94096786 220.79304733 80.19834198 220.48062592 79.43321228 220.15873718 C75.83853421 218.55807264 75.83853421 218.55807264 72 218 C50.19271857 270.8357427 35.05317872 331.25251806 57.58178711 386.57666016 C68.45445815 412.10204624 89.29143712 431.85102834 114.89257812 442.203125 C159.693788 459.14371224 217.06344767 459.5124767 261.4140625 440.65625 C272.52446746 435.52464684 282.48511352 429.79468102 292 422 C292.85078125 421.31421875 293.7015625 420.6284375 294.578125 419.921875 C320.60031273 397.82756466 332.94373093 362.95427437 335.71875 329.734375 C338.49487987 287.98565269 328.49981711 247.16540344 312 209 C308.32642541 209 306.42193003 209.3778802 303.04785156 210.56054688 Z M1386.06616211 224.3293457 C1384.8136692 224.76528801 1384.8136692 224.76528801 1383.53587341 225.21003723 C1382.62555862 225.52873276 1381.71524384 225.84742828 1380.77734375 226.17578125 C1379.84330215 226.5016069 1378.90926056 226.82743256 1377.94691467 227.16313171 C1375.96182818 227.85597888 1373.9770085 228.54959088 1371.99243164 229.24389648 C1368.97542213 230.29923498 1365.95751353 231.35196801 1362.93945312 232.40429688 C1361.01036203 233.07796858 1359.08132392 233.75179202 1357.15234375 234.42578125 C1356.25619858 234.73840408 1355.36005341 235.05102692 1354.43675232 235.37312317 C1349.2651008 237.18388637 1344.12332714 239.05659212 1339 241 C1339.27150879 241.62229492 1339.54301758 242.24458984 1339.82275391 242.88574219 C1354.33175316 276.34915561 1365.70455699 312.9936265 1352.6875 348.9375 C1348.40766727 359.14813951 1342.74626074 367.11077136 1335 375 C1334.33484375 375.68964844 1333.6696875 376.37929688 1332.984375 377.08984375 C1307.73934343 401.41950204 1267.78964901 404.56896635 1235 409 C1239.29 426.49 1243.58 443.98 1248 462 C1292.11363844 456.83353784 1335.57472652 447.96691839 1370 418 C1370.70382812 417.42894531 1371.40765625 416.85789062 1372.1328125 416.26953125 C1397.26142854 395.52610507 1409.03437314 362.7260638 1412.5625 331.2890625 C1415.91816366 295.71495199 1409.97614398 253.91136576 1391 223 C1389.26263725 223 1387.69464848 223.76095258 1386.06616211 224.3293457 Z " fill="#483d8b" transform="translate(0,0)"/>
<path d="M0 0 C6.96159863 2.37588504 12.35138231 7.43975967 18 12 C18.59619141 12.47824219 19.19238281 12.95648438 19.80664062 13.44921875 C33.18322344 24.26062804 46.88752505 37.25889277 50 55 C50.66811688 63.00696327 50.70254401 70.21186443 46 77 C40.30100755 83.60505346 33.15947206 87.51757878 24.43066406 88.33374023 C20.42471205 88.42896368 16.44246575 88.39850057 12.4375 88.3125 C11.06576886 88.30097558 9.69402187 88.29120028 8.32226562 88.28320312 C1.48948936 88.2205001 -5.22611489 87.92064958 -12 87 C-10.18318836 83.68699054 -8.07661205 80.84460537 -5.6875 77.9375 C5.46663509 63.65361814 9.94489059 45.57831196 8.78125 27.625 C7.77481216 19.57349731 5.15317835 12.43826688 2 5 C1.33021341 3.33458469 0.66243441 1.66835334 0 0 Z " fill="#483d8b" transform="translate(1168,211)"/>
<path d="M0 0 C4.74450009 4.85746438 5.79969571 8.88750495 6.0625 15.5 C5.79472913 24.82541171 2.15143095 33.02787659 -4.375 39.6875 C-16.7219938 50.5002977 -16.7219938 50.5002977 -23.375 53.6875 C-31.95135449 53.07713901 -40.03823263 46.34766514 -45.75 40.4375 C-50.45509266 34.87011944 -51.98501107 29.32739669 -52.75 22.1875 C-51.69159651 12.30906739 -48.1936392 4.54624149 -40.45703125 -1.9140625 C-28.12706414 -10.33092627 -11.73699536 -8.69513348 0 0 Z " fill="#483d8b" transform="translate(1121.375,229.3125)"/>
</svg>
