<?xml version="1.0" encoding="UTF-8"?>
<!DOCTYPE svg PUBLIC "-//W3C//DTD SVG 1.1//EN" "http://www.w3.org/Graphics/SVG/1.1/DTD/svg11.dtd">
<!-- Creator: CorelDRAW -->
<svg xmlns="http://www.w3.org/2000/svg" xml:space="preserve" width="1.70666in" height="1.70666in" version="1.1" style="shape-rendering:geometricPrecision; text-rendering:geometricPrecision; image-rendering:optimizeQuality; fill-rule:evenodd; clip-rule:evenodd"
viewBox="0 0 1706.66 1706.66"
 xmlns:xlink="http://www.w3.org/1999/xlink"
 xmlns:xodm="http://www.corel.com/coreldraw/odm/2003">
 <defs>
  <style type="text/css">
   <![CDATA[
    .fil0 {fill:#FFFFFF}
   ]]>
  </style>
 </defs>
 <g id="Layer_x0020_1">
  <metadata id="CorelCorpID_0Corel-Layer"/>
  <path class="fil0" d="M1082.39 898.65l-451.19 0c-27.4,0 -20,-38.85 -20,-73.6 0,-92.97 66.48,-172.28 158.08,-188.56 28.73,-5.07 24.61,48.71 87.51,48.71 62.89,0 58.8,-53.79 87.51,-48.72 91.61,16.3 158.1,95.59 158.1,188.56 0,34.75 7.4,73.61 -20.01,73.61zm-431.19 -40.01l411.18 0 0 -33.59c0,-69.21 -46.58,-128.83 -112.46,-146.39 -46.61,61.94 -139.67,61.97 -186.28,0 -65.87,17.54 -112.46,77.18 -112.46,146.39l0 33.59 0.01 0z"/>
  <path class="fil0" d="M856.25 629.55c-64.24,0 -116.49,-52.25 -116.49,-116.49 0,-64.24 52.25,-116.49 116.49,-116.49 64.24,0 116.5,52.25 116.5,116.49 0,64.24 -52.26,116.49 -116.5,116.49zm0 -192.98c-100.67,0 -100.68,152.98 0,152.98 100.67,0 100.68,-152.98 0,-152.98z"/>
  <path class="fil0" d="M853.32 1336.88c-5.12,0 -10.24,-1.96 -14.14,-5.86l-184.07 -184.07 -260.31 0.01c-11.04,0 -20,-8.97 -20,-20l0 -260.31 -184.06 -184.07c-7.82,-7.81 -7.82,-20.47 0,-28.28l184.06 -184.07 0 -260.3c0,-11.04 8.96,-20 20,-20l260.3 0 184.07 -184.07c7.82,-7.82 20.47,-7.82 28.3,0l184.07 184.07 260.31 0c11.04,0 20,8.96 20,20l0 260.3 184.06 184.07c7.82,7.81 7.82,20.47 0,28.28l-184.06 184.07 0 260.3c0,11.04 -8.97,20 -20,20l-260.32 0.01 -184.07 184.06c-3.91,3.92 -9.02,5.86 -14.14,5.86zm-438.51 -229.92l248.58 0c5.31,0 10.39,2.11 14.13,5.86l175.8 175.78 175.78 -175.79c3.76,-3.75 8.84,-5.87 14.15,-5.87l248.58 0.01 0 -248.59c0,-5.31 2.11,-10.39 5.86,-14.14l175.79 -175.79 -175.79 -175.79c-3.75,-3.75 -5.86,-8.83 -5.86,-14.14l0 -248.58 -248.58 0c-5.31,0 -10.39,-2.11 -14.15,-5.87l-175.78 -175.77 -175.79 175.77c-3.75,3.75 -8.83,5.87 -14.14,5.87l-248.59 0 0 248.58c0,5.31 -2.11,10.39 -5.86,14.14l-175.77 175.79 175.78 175.79c3.75,3.75 5.87,8.83 5.87,14.14l-0.01 248.59z"/>
  <path class="fil0" d="M853.32 1071.11c-222.01,0 -402.65,-180.64 -402.65,-402.66 0,-222.01 180.62,-402.65 402.65,-402.65 222.02,0 402.65,180.62 402.65,402.65 0,222.02 -180.63,402.66 -402.65,402.66zm0 -765.31c-199.96,0 -362.65,162.68 -362.65,362.65 0,199.97 162.68,362.65 362.65,362.65 199.97,0 362.64,-162.68 362.64,-362.65 0,-199.95 -162.68,-362.65 -362.64,-362.65z"/>
  <path class="fil0" d="M1077.19 1706.66c-4.82,0 -9.55,-1.74 -13.29,-5.07l-210.58 -187.41 -210.58 187.41c-12.84,11.44 -33.3,2.27 -33.3,-14.93l0 -559.7c0,-26.33 40,-26.32 40,0l0 515.13 190.58 -169.63c7.59,-6.75 19.03,-6.75 26.6,0l190.58 169.63 0 -515.13c0,-26.33 40,-26.32 40,0l0 559.7c0,11.13 -9.07,20 -20,20z"/>
 </g>
</svg>
