<?xml version="1.0" encoding="UTF-8"?>
<!DOCTYPE svg PUBLIC "-//W3C//DTD SVG 1.1//EN" "http://www.w3.org/Graphics/SVG/1.1/DTD/svg11.dtd">
<!-- Creator: CorelDRAW -->
<svg xmlns="http://www.w3.org/2000/svg" xml:space="preserve" width="1.70666in" height="1.70666in" version="1.1" style="shape-rendering:geometricPrecision; text-rendering:geometricPrecision; image-rendering:optimizeQuality; fill-rule:evenodd; clip-rule:evenodd"
viewBox="0 0 1707 1707"
 xmlns:xlink="http://www.w3.org/1999/xlink">
 <defs>
  <style type="text/css">
   <![CDATA[
    .fil0 {fill:#FFFFFF}
   ]]>
  </style>
 </defs>
 <g id="Layer_x0020_1">
  <metadata id="CorelCorpID_0Corel-Layer"/>
  <g id="_331281080">
   <g>
    <g>
     <path class="fil0" d="M1637 1707l-1567 0c-7,0 -14,-2 -18,-8 -4,-6 -7,-12 -5,-19l274 -1660c2,-11 13,-21 24,-21l1029 0c13,0 22,9 24,21l262 1660c2,7 -1,13 -5,19 -5,6 -10,8 -18,8zm-1539 -48l1511 0 -256 -1611 -987 0 -268 1611z"/>
    </g>
    <g>
     <path class="fil0" d="M957 358l-156 0c-14,0 -25,-12 -25,-25l0 -309c0,-14 11,-25 25,-25l156 0c14,0 25,11 25,25l0 310c-1,12 -11,24 -25,24zm-133 -49l108 0 0 -261 -108 0 0 261z"/>
    </g>
    <g>
     <path class="fil0" d="M957 808l-156 0c-14,0 -25,-12 -25,-25l0 -310c0,-14 11,-25 25,-25l156 0c14,0 25,11 25,25l0 310c-1,13 -11,25 -25,25zm-133 -49l108 0 0 -261 -108 0 0 261z"/>
    </g>
    <g>
     <path class="fil0" d="M957 1257l-156 0c-14,0 -25,-11 -25,-25l0 -309c0,-14 11,-25 25,-25l156 0c14,0 25,11 25,25l0 309c-1,14 -11,25 -25,25zm-133 -48l108 0 0 -261 -108 0 0 261z"/>
    </g>
    <g>
     <path class="fil0" d="M957 1707l-156 0c-14,0 -25,-11 -25,-25l0 -309c0,-14 11,-25 25,-25l156 0c14,0 25,11 25,25l0 309c-1,14 -11,25 -25,25zm-133 -48l108 0 0 -261 -108 0 0 261z"/>
    </g>
    <g>
     <path class="fil0" d="M1403 1707l-1100 0c-7,0 -13,-2 -18,-8 -4,-6 -7,-12 -5,-19l193 -1658c1,-13 12,-21 23,-21l721 0c13,0 22,9 24,22l186 1658c1,7 -2,14 -6,19 -4,5 -11,7 -18,7zm-1072 -48l1044 0 -179 -1611 -677 0 -188 1611z"/>
    </g>
   </g>
  </g>
 </g>
</svg>
